# Blender v2.79 (sub 0) OBJ File: ''
# www.blender.org
mtllib cube.mtl
o Cube_Cube.001
v -0.188327 -0.188327 0.188327
v -0.188327 0.188327 0.188327
v -0.188327 -0.188327 -0.188327
v -0.188327 0.188327 -0.188327
v 0.188327 -0.188327 0.188327
v 0.188327 0.188327 0.188327
v 0.188327 -0.188327 -0.188327
v 0.188327 0.188327 -0.188327
v -0.188327 -0.188327 0.000000
v -0.188327 0.000000 0.188327
v -0.188327 0.188327 0.000000
v -0.188327 0.000000 -0.188327
v 0.000000 -0.188327 -0.188327
v 0.000000 0.188327 -0.188327
v 0.188327 0.000000 -0.188327
v 0.188327 -0.188327 0.000000
v 0.188327 0.188327 0.000000
v 0.188327 0.000000 0.188327
v 0.000000 -0.188327 0.188327
v 0.000000 0.188327 0.188327
v 0.000000 0.188327 0.000000
v 0.000000 -0.188327 0.000000
v 0.000000 0.000000 0.188327
v 0.188327 0.000000 0.000000
v 0.000000 0.000000 -0.188327
v -0.188327 0.000000 0.000000
v -0.188327 -0.188327 0.094164
v -0.188327 0.094164 0.188327
v -0.188327 0.188327 -0.094164
v -0.188327 -0.094164 -0.188327
v -0.094164 -0.188327 -0.188327
v 0.094164 0.188327 -0.188327
v 0.188327 -0.094164 -0.188327
v 0.188327 -0.188327 -0.094164
v 0.188327 0.188327 0.094164
v 0.188327 -0.094164 0.188327
v 0.094164 -0.188327 0.188327
v -0.094164 0.188327 0.188327
v -0.188327 -0.188327 -0.094164
v -0.188327 -0.094164 0.188327
v -0.188327 0.188327 0.094164
v -0.188327 0.094164 -0.188327
v 0.094164 -0.188327 -0.188327
v -0.094164 0.188327 -0.188327
v 0.188327 0.094164 -0.188327
v 0.188327 -0.188327 0.094164
v 0.188327 0.188327 -0.094164
v 0.188327 0.094164 0.188327
v -0.094164 -0.188327 0.188327
v 0.094164 0.188327 0.188327
v 0.000000 0.188327 0.094164
v 0.000000 0.188327 -0.094164
v 0.094164 0.188327 0.000000
v -0.094164 0.188327 0.000000
v 0.000000 -0.188327 0.094164
v 0.000000 -0.188327 -0.094164
v -0.094164 -0.188327 0.000000
v 0.094164 -0.188327 0.000000
v -0.094164 0.000000 0.188327
v 0.094164 0.000000 0.188327
v 0.000000 -0.094164 0.188327
v 0.000000 0.094164 0.188327
v 0.188327 0.000000 0.094164
v 0.188327 0.000000 -0.094164
v 0.188327 -0.094164 0.000000
v 0.188327 0.094164 0.000000
v 0.094164 0.000000 -0.188327
v -0.094164 0.000000 -0.188327
v 0.000000 -0.094164 -0.188327
v 0.000000 0.094164 -0.188327
v -0.188327 0.000000 -0.094164
v -0.188327 0.000000 0.094164
v -0.188327 -0.094164 0.000000
v -0.188327 0.094164 0.000000
v -0.188327 0.094164 0.094164
v -0.188327 -0.094164 0.094164
v -0.188327 -0.094164 -0.094164
v -0.094164 0.094164 -0.188327
v -0.094164 -0.094164 -0.188327
v 0.094164 -0.094164 -0.188327
v 0.188327 0.094164 -0.094164
v 0.188327 -0.094164 -0.094164
v 0.188327 -0.094164 0.094164
v 0.094164 0.094164 0.188327
v 0.094164 -0.094164 0.188327
v -0.094164 -0.094164 0.188327
v 0.094164 -0.188327 -0.094164
v -0.094164 -0.188327 -0.094164
v -0.094164 -0.188327 0.094164
v -0.094164 0.188327 -0.094164
v 0.094164 0.188327 -0.094164
v 0.094164 0.188327 0.094164
v -0.094164 0.188327 0.094164
v 0.094164 -0.188327 0.094164
v -0.094164 0.094164 0.188327
v 0.188327 0.094164 0.094164
v 0.094164 0.094164 -0.188327
v -0.188327 0.094164 -0.094164
v 0.304290 0.000000 -0.094164
v 0.304290 0.000000 0.000000
v 0.304290 -0.094164 0.000000
v 0.304290 -0.094164 -0.094164
v 0.238039 0.094164 0.188327
v 0.238039 0.000000 0.188327
v 0.238039 0.000000 0.094164
v 0.238039 0.094164 0.094164
v 0.334850 0.188327 -0.188327
v 0.334850 0.094164 -0.188327
v 0.334850 0.188327 -0.094164
v 0.334850 0.094164 -0.094164
v 0.213742 0.188327 0.000000
v 0.213742 0.188327 0.094164
v 0.213742 0.094164 0.000000
v 0.213742 0.094164 0.094164
v 0.254433 0.000000 -0.094164
v 0.254433 0.000000 0.000000
v 0.254433 0.094164 0.000000
v 0.254433 0.094164 -0.094164
v 0.249694 0.000000 0.000000
v 0.249694 0.000000 0.094164
v 0.249694 -0.094164 0.000000
v 0.249694 -0.094164 0.094164
v 0.275725 -0.094164 0.188327
v 0.275725 -0.188327 0.188327
v 0.275725 -0.188327 0.094164
v 0.275725 -0.094164 0.094164
v 0.250857 0.000000 -0.188327
v 0.250857 -0.094164 -0.188327
v 0.250857 0.000000 -0.094164
v 0.250857 -0.094164 -0.094164
v 0.188327 0.188327 0.220858
v 0.188327 0.094164 0.220858
v 0.094164 0.188327 0.220858
v 0.094164 0.094164 0.220858
v -0.188327 -0.094164 0.272149
v -0.188327 0.000000 0.272149
v -0.094164 0.000000 0.272149
v -0.094164 -0.094164 0.272149
v 0.094164 0.000000 0.271901
v 0.000000 0.000000 0.271901
v 0.000000 -0.094164 0.271901
v 0.094164 -0.094164 0.271901
v 0.000000 0.188327 0.301572
v -0.094164 0.188327 0.301572
v 0.000000 0.094164 0.301572
v -0.094164 0.094164 0.301572
v 0.188327 0.000000 0.217396
v 0.188327 -0.094164 0.217396
v 0.094164 0.000000 0.217396
v 0.094164 -0.094164 0.217396
v 0.094164 0.000000 0.223198
v 0.000000 0.000000 0.223198
v 0.000000 0.094164 0.223198
v 0.094164 0.094164 0.223198
v 0.188327 -0.094164 0.271899
v 0.188327 -0.188327 0.271899
v 0.094164 -0.188327 0.271899
v 0.094164 -0.094164 0.271899
v 0.000000 0.243947 0.000000
v 0.000000 0.243947 0.094164
v 0.094164 0.243947 0.000000
v 0.094164 0.243947 0.094164
v -0.188327 0.241831 0.094164
v -0.188327 0.241831 0.000000
v -0.094164 0.241831 0.000000
v -0.094164 0.241831 0.094164
v -0.188327 0.273906 -0.094164
v -0.188327 0.273906 -0.188327
v -0.094164 0.273906 -0.188327
v -0.094164 0.273906 -0.094164
v 0.188327 0.265287 -0.094164
v 0.188327 0.265287 0.000000
v 0.094164 0.265287 0.000000
v 0.094164 0.265287 -0.094164
v 0.188327 0.280094 0.094164
v 0.188327 0.280094 0.188327
v 0.094164 0.280094 0.188327
v 0.094164 0.280094 0.094164
v 0.000000 0.217152 0.094164
v 0.000000 0.217152 0.188327
v -0.094164 0.217152 0.188327
v -0.094164 0.217152 0.094164
vn -1.0000 0.0000 0.0000
vn 0.0000 0.0000 -1.0000
vn 1.0000 0.0000 0.0000
vn 0.0000 0.0000 1.0000
vn 0.0000 -1.0000 0.0000
vn 0.0000 1.0000 0.0000
usemtl Material.001
s off
f 29//1 42//1 98//1
f 32//2 45//2 97//2
f 35//3 48//3 96//3
f 38//4 28//4 95//4
f 46//5 37//5 94//5
f 41//6 38//6 93//6
f 51//6 50//6 92//6
f 52//6 53//6 91//6
f 29//6 54//6 90//6
f 55//5 49//5 89//5
f 56//5 57//5 88//5
f 34//5 58//5 87//5
f 10//6 137//6 59//6
f 85//5 141//5 61//5
f 50//4 62//4 84//4
f 63//3 36//3 83//3
f 64//2 102//2 82//2
f 47//3 66//3 81//3
f 67//2 33//2 80//2
f 68//2 69//2 79//2
f 44//2 70//2 78//2
f 71//1 30//1 77//1
f 72//1 73//1 76//1
f 41//1 74//1 75//1
f 75//1 26//1 72//1
f 28//1 72//1 10//1
f 2//1 75//1 28//1
f 76//1 9//1 27//1
f 40//1 27//1 1//1
f 10//1 76//1 40//1
f 77//1 3//1 39//1
f 73//1 39//1 9//1
f 26//1 77//1 73//1
f 78//2 25//2 68//2
f 42//2 68//2 12//2
f 4//2 78//2 42//2
f 79//2 13//2 31//2
f 30//2 31//2 3//2
f 12//2 79//2 30//2
f 80//2 7//2 43//2
f 69//2 43//2 13//2
f 25//2 80//2 69//2
f 81//2 115//2 64//2
f 45//3 64//3 15//3
f 47//6 107//6 8//6
f 82//3 16//3 34//3
f 33//3 34//3 7//3
f 15//2 128//2 33//2
f 46//5 124//5 5//5
f 65//3 46//3 16//3
f 83//4 120//4 63//4
f 23//1 153//1 62//1
f 48//4 60//4 18//4
f 48//5 134//5 84//5
f 85//4 19//4 37//4
f 5//5 157//5 37//5
f 60//6 147//6 18//6
f 86//4 1//4 49//4
f 61//4 49//4 19//4
f 23//4 86//4 61//4
f 87//5 22//5 56//5
f 43//5 56//5 13//5
f 7//5 87//5 43//5
f 88//5 9//5 39//5
f 31//5 39//5 3//5
f 13//5 88//5 31//5
f 89//5 1//5 27//5
f 57//5 27//5 9//5
f 22//5 89//5 57//5
f 90//6 21//6 52//6
f 44//6 52//6 14//6
f 4//2 169//2 44//2
f 91//2 171//2 47//2
f 32//6 47//6 8//6
f 14//6 91//6 32//6
f 92//2 175//2 35//2
f 53//6 35//6 17//6
f 21//2 161//2 53//2
f 20//4 181//4 38//4
f 54//6 51//6 21//6
f 93//4 163//4 41//4
f 94//5 19//5 55//5
f 58//5 55//5 22//5
f 16//5 94//5 58//5
f 95//4 10//4 59//4
f 62//4 59//4 23//4
f 62//5 146//5 95//5
f 18//4 103//4 48//4
f 66//3 63//3 24//3
f 35//6 111//6 17//6
f 97//2 15//2 67//2
f 70//2 67//2 25//2
f 14//2 97//2 70//2
f 98//1 12//1 71//1
f 74//1 71//1 26//1
f 11//1 98//1 74//1
f 99//3 101//3 102//3
f 24//6 99//6 64//6
f 65//4 100//4 24//4
f 82//5 101//5 65//5
f 106//3 104//3 105//3
f 96//2 105//2 63//2
f 48//6 106//6 96//6
f 63//5 104//5 18//5
f 107//3 110//3 108//3
f 81//4 109//4 47//4
f 8//2 108//2 45//2
f 45//5 110//5 81//5
f 111//3 114//3 113//3
f 17//2 113//2 66//2
f 96//4 112//4 35//4
f 66//5 114//5 96//5
f 118//3 116//3 115//3
f 66//6 118//6 81//6
f 24//4 117//4 66//4
f 64//5 116//5 24//5
f 119//3 122//3 121//3
f 65//5 122//5 83//5
f 24//2 121//2 65//2
f 63//6 119//6 24//6
f 126//3 124//3 125//3
f 5//4 123//4 36//4
f 83//2 125//2 46//2
f 36//6 126//6 83//6
f 127//3 130//3 128//3
f 64//6 127//6 15//6
f 82//4 129//4 64//4
f 33//5 130//5 82//5
f 131//4 134//4 132//4
f 50//6 131//6 6//6
f 6//3 132//3 48//3
f 84//1 133//1 50//1
f 137//4 135//4 138//4
f 86//5 135//5 40//5
f 40//1 136//1 10//1
f 59//3 138//3 86//3
f 139//4 141//4 142//4
f 23//6 139//6 60//6
f 60//3 142//3 85//3
f 61//1 140//1 23//1
f 143//4 146//4 145//4
f 20//3 145//3 62//3
f 38//6 143//6 20//6
f 95//1 144//1 38//1
f 147//4 150//4 148//4
f 18//3 148//3 36//3
f 85//1 149//1 60//1
f 36//5 150//5 85//5
f 154//4 152//4 151//4
f 84//3 151//3 60//3
f 60//5 152//5 23//5
f 62//6 154//6 84//6
f 155//4 157//4 156//4
f 37//1 158//1 85//1
f 36//3 156//3 5//3
f 85//6 155//6 36//6
f 159//6 162//6 161//6
f 51//1 159//1 21//1
f 92//4 160//4 51//4
f 53//3 162//3 92//3
f 164//6 166//6 165//6
f 54//3 166//3 93//3
f 11//2 165//2 54//2
f 41//1 164//1 11//1
f 168//6 170//6 169//6
f 29//1 168//1 4//1
f 90//4 167//4 29//4
f 44//3 170//3 90//3
f 174//6 172//6 171//6
f 53//1 174//1 91//1
f 17//4 173//4 53//4
f 47//3 172//3 17//3
f 178//6 176//6 175//6
f 50//1 178//1 92//1
f 35//3 176//3 6//3
f 6//4 177//4 50//4
f 182//6 180//6 179//6
f 51//3 180//3 20//3
f 93//2 179//2 51//2
f 38//1 182//1 93//1
f 29//1 4//1 42//1
f 32//2 8//2 45//2
f 35//3 6//3 48//3
f 38//4 2//4 28//4
f 46//5 5//5 37//5
f 41//6 2//6 38//6
f 51//6 20//6 50//6
f 52//6 21//6 53//6
f 29//6 11//6 54//6
f 55//5 19//5 49//5
f 56//5 22//5 57//5
f 34//5 16//5 58//5
f 10//6 136//6 137//6
f 85//5 142//5 141//5
f 50//4 20//4 62//4
f 63//3 18//3 36//3
f 64//2 99//2 102//2
f 47//3 17//3 66//3
f 67//2 15//2 33//2
f 68//2 25//2 69//2
f 44//2 14//2 70//2
f 71//1 12//1 30//1
f 72//1 26//1 73//1
f 41//1 11//1 74//1
f 75//1 74//1 26//1
f 28//1 75//1 72//1
f 2//1 41//1 75//1
f 76//1 73//1 9//1
f 40//1 76//1 27//1
f 10//1 72//1 76//1
f 77//1 30//1 3//1
f 73//1 77//1 39//1
f 26//1 71//1 77//1
f 78//2 70//2 25//2
f 42//2 78//2 68//2
f 4//2 44//2 78//2
f 79//2 69//2 13//2
f 30//2 79//2 31//2
f 12//2 68//2 79//2
f 80//2 33//2 7//2
f 69//2 80//2 43//2
f 25//2 67//2 80//2
f 81//2 118//2 115//2
f 45//3 81//3 64//3
f 47//6 109//6 107//6
f 82//3 65//3 16//3
f 33//3 82//3 34//3
f 15//2 127//2 128//2
f 46//5 125//5 124//5
f 65//3 83//3 46//3
f 83//4 122//4 120//4
f 23//1 152//1 153//1
f 48//4 84//4 60//4
f 48//5 132//5 134//5
f 85//4 61//4 19//4
f 5//5 156//5 157//5
f 60//6 149//6 147//6
f 86//4 40//4 1//4
f 61//4 86//4 49//4
f 23//4 59//4 86//4
f 87//5 58//5 22//5
f 43//5 87//5 56//5
f 7//5 34//5 87//5
f 88//5 57//5 9//5
f 31//5 88//5 39//5
f 13//5 56//5 88//5
f 89//5 49//5 1//5
f 57//5 89//5 27//5
f 22//5 55//5 89//5
f 90//6 54//6 21//6
f 44//6 90//6 52//6
f 4//2 168//2 169//2
f 91//2 174//2 171//2
f 32//6 91//6 47//6
f 14//6 52//6 91//6
f 92//2 178//2 175//2
f 53//6 92//6 35//6
f 21//2 159//2 161//2
f 20//4 180//4 181//4
f 54//6 93//6 51//6
f 93//4 166//4 163//4
f 94//5 37//5 19//5
f 58//5 94//5 55//5
f 16//5 46//5 94//5
f 95//4 28//4 10//4
f 62//4 95//4 59//4
f 62//5 145//5 146//5
f 18//4 104//4 103//4
f 66//3 96//3 63//3
f 35//6 112//6 111//6
f 97//2 45//2 15//2
f 70//2 97//2 67//2
f 14//2 32//2 97//2
f 98//1 42//1 12//1
f 74//1 98//1 71//1
f 11//1 29//1 98//1
f 99//3 100//3 101//3
f 24//6 100//6 99//6
f 65//4 101//4 100//4
f 82//5 102//5 101//5
f 106//3 103//3 104//3
f 96//2 106//2 105//2
f 48//6 103//6 106//6
f 63//5 105//5 104//5
f 107//3 109//3 110//3
f 81//4 110//4 109//4
f 8//2 107//2 108//2
f 45//5 108//5 110//5
f 111//3 112//3 114//3
f 17//2 111//2 113//2
f 96//4 114//4 112//4
f 66//5 113//5 114//5
f 118//3 117//3 116//3
f 66//6 117//6 118//6
f 24//4 116//4 117//4
f 64//5 115//5 116//5
f 119//3 120//3 122//3
f 65//5 121//5 122//5
f 24//2 119//2 121//2
f 63//6 120//6 119//6
f 126//3 123//3 124//3
f 5//4 124//4 123//4
f 83//2 126//2 125//2
f 36//6 123//6 126//6
f 127//3 129//3 130//3
f 64//6 129//6 127//6
f 82//4 130//4 129//4
f 33//5 128//5 130//5
f 131//4 133//4 134//4
f 50//6 133//6 131//6
f 6//3 131//3 132//3
f 84//1 134//1 133//1
f 137//4 136//4 135//4
f 86//5 138//5 135//5
f 40//1 135//1 136//1
f 59//3 137//3 138//3
f 139//4 140//4 141//4
f 23//6 140//6 139//6
f 60//3 139//3 142//3
f 61//1 141//1 140//1
f 143//4 144//4 146//4
f 20//3 143//3 145//3
f 38//6 144//6 143//6
f 95//1 146//1 144//1
f 147//4 149//4 150//4
f 18//3 147//3 148//3
f 85//1 150//1 149//1
f 36//5 148//5 150//5
f 154//4 153//4 152//4
f 84//3 154//3 151//3
f 60//5 151//5 152//5
f 62//6 153//6 154//6
f 155//4 158//4 157//4
f 37//1 157//1 158//1
f 36//3 155//3 156//3
f 85//6 158//6 155//6
f 159//6 160//6 162//6
f 51//1 160//1 159//1
f 92//4 162//4 160//4
f 53//3 161//3 162//3
f 164//6 163//6 166//6
f 54//3 165//3 166//3
f 11//2 164//2 165//2
f 41//1 163//1 164//1
f 168//6 167//6 170//6
f 29//1 167//1 168//1
f 90//4 170//4 167//4
f 44//3 169//3 170//3
f 174//6 173//6 172//6
f 53//1 173//1 174//1
f 17//4 172//4 173//4
f 47//3 171//3 172//3
f 178//6 177//6 176//6
f 50//1 177//1 178//1
f 35//3 175//3 176//3
f 6//4 176//4 177//4
f 182//6 181//6 180//6
f 51//3 179//3 180//3
f 93//2 182//2 179//2
f 38//1 181//1 182//1
